<?xml version="1.0" encoding="UTF-8" standalone="no"?>
<!-- Created with Inkscape (http://www.inkscape.org/) -->

<svg
   xmlns:dc="http://purl.org/dc/elements/1.1/"
   xmlns:cc="http://creativecommons.org/ns#"
   xmlns:rdf="http://www.w3.org/1999/02/22-rdf-syntax-ns#"
   xmlns:svg="http://www.w3.org/2000/svg"
   xmlns="http://www.w3.org/2000/svg"
   xmlns:sodipodi="http://sodipodi.sourceforge.net/DTD/sodipodi-0.dtd"
   xmlns:inkscape="http://www.inkscape.org/namespaces/inkscape"
   width="10mm"
   height="10mm"
   viewBox="0 0 35.433071 35.433071"
   id="svg4357"
   version="1.1"
   inkscape:version="0.91 r13725"
   sodipodi:docname="funcion.svg">
  <defs
     id="defs4359" />
  <sodipodi:namedview
     id="base"
     pagecolor="#ffffff"
     bordercolor="#666666"
     borderopacity="1.0"
     inkscape:pageopacity="0.0"
     inkscape:pageshadow="2"
     inkscape:zoom="17.243778"
     inkscape:cx="17.716535"
     inkscape:cy="17.716535"
     inkscape:document-units="px"
     inkscape:current-layer="layer1"
     showgrid="false"
     inkscape:window-width="1366"
     inkscape:window-height="744"
     inkscape:window-x="0"
     inkscape:window-y="24"
     inkscape:window-maximized="1" />
  <metadata
     id="metadata4362">
    <rdf:RDF>
      <cc:Work
         rdf:about="">
        <dc:format>image/svg+xml</dc:format>
        <dc:type
           rdf:resource="http://purl.org/dc/dcmitype/StillImage" />
        <dc:title></dc:title>
      </cc:Work>
    </rdf:RDF>
  </metadata>
  <g
     inkscape:label="Camada 1"
     inkscape:groupmode="layer"
     id="layer1"
     transform="translate(0,-1016.9291)">
    <g
       id="g5704"
       transform="matrix(0.26613918,0,0,0.26613918,-149.4759,855.31438)">
      <rect
         ry="10.714286"
         rx="10.714286"
         y="644.79077"
         x="563.57141"
         height="75"
         width="129.28572"
         id="rect5686"
         style="color:#000000;clip-rule:nonzero;display:inline;overflow:visible;visibility:visible;opacity:1;isolation:auto;mix-blend-mode:normal;color-interpolation:sRGB;color-interpolation-filters:linearRGB;solid-color:#000000;solid-opacity:1;fill:#ffffff;fill-opacity:1;fill-rule:nonzero;stroke:#000000;stroke-width:3.85165191;stroke-linecap:butt;stroke-linejoin:miter;stroke-miterlimit:4;stroke-dasharray:none;stroke-dashoffset:0;stroke-opacity:1;color-rendering:auto;image-rendering:auto;shape-rendering:auto;text-rendering:auto;enable-background:accumulate" />
      <rect
         ry="0"
         rx="0"
         y="657.64795"
         x="648.57141"
         height="38.57143"
         width="31.428572"
         id="rect5688"
         style="color:#000000;clip-rule:nonzero;display:inline;overflow:visible;visibility:visible;opacity:1;isolation:auto;mix-blend-mode:normal;color-interpolation:sRGB;color-interpolation-filters:linearRGB;solid-color:#000000;solid-opacity:1;fill:#ffffff;fill-opacity:1;fill-rule:nonzero;stroke:#000000;stroke-width:3;stroke-linecap:butt;stroke-linejoin:miter;stroke-miterlimit:4;stroke-dasharray:none;stroke-dashoffset:0;stroke-opacity:1;color-rendering:auto;image-rendering:auto;shape-rendering:auto;text-rendering:auto;enable-background:accumulate" />
      <rect
         y="626.93359"
         x="620"
         height="28.571428"
         width="19.285715"
         id="rect5690"
         style="color:#000000;clip-rule:nonzero;display:inline;overflow:visible;visibility:visible;opacity:1;isolation:auto;mix-blend-mode:normal;color-interpolation:sRGB;color-interpolation-filters:linearRGB;solid-color:#000000;solid-opacity:1;fill:#ffffff;fill-opacity:1;fill-rule:nonzero;stroke:#000000;stroke-width:2;stroke-linecap:butt;stroke-linejoin:miter;stroke-miterlimit:4;stroke-dasharray:none;stroke-dashoffset:0;stroke-opacity:1;color-rendering:auto;image-rendering:auto;shape-rendering:auto;text-rendering:auto;enable-background:accumulate" />
      <path
         inkscape:connector-curvature="0"
         id="path5692"
         d="m 576.28698,669.87275 c 1.19696,0.12026 2.36789,0.2584 3.5909,0.36078 0.2271,0.0195 0.47878,0 0.71818,0 0.47879,0 0.95757,0 1.43636,0 1.19696,0 2.39394,0 3.5909,0 0.19108,0 2.09524,-0.0292 2.15453,0 0.21413,0.10758 -0.1514,0.24669 0,0.36078 0.10706,0.0806 0.4788,0.12025 0.71819,0.18038 0.23939,0.0601 0.41537,0.14236 0.71818,0.18039 0.21411,0.026 0.47879,0 0.71818,0 0.47879,0 0.95758,0 1.43636,0 0.23939,0 0.47879,0 0.71818,0 0.23939,0 0.50406,0.026 0.71818,0 0.60563,-0.0761 0.83075,-0.28472 1.43635,-0.36077 0.4404,-0.0553 3.26534,0.0546 3.59091,0 0.4454,-0.0744 0.54891,-0.23337 0.71818,-0.36078 0.31213,-0.23532 0.44702,-0.48315 0.71818,-0.72156 0.20798,-0.18298 0.56972,-0.35469 0.71819,-0.54116 0.0939,-0.11798 -0.11612,-0.24409 0,-0.36078 0.867,-0.87106 0.34128,0.01 1.43635,-0.54116 0.49532,-0.24865 -0.86976,-0.16121 0.71819,-0.36075 0.21412,-0.026 0.64247,-0.0569 0.71817,0 0.29925,0.22557 -0.19949,0.65138 0,0.90191 0.14847,0.18657 0.53458,0.35672 0.71819,0.54117 0.30965,0.31105 -0.55711,0.40124 0.71817,0.72155 0.16928,0.0426 0.4788,0 0.71818,0 0.2394,0 0.4788,0 0.71819,0 0.3249,0 4.11768,-0.0227 4.30908,0 0.66005,0.0829 2.32777,0.67592 2.87272,0.72156 0.36998,0.0325 4.26756,0 5.02725,0 3.59091,0 7.18181,0 10.77271,0"
         style="fill:none;fill-rule:evenodd;stroke:#000000;stroke-width:1;stroke-linecap:butt;stroke-linejoin:miter;stroke-miterlimit:4;stroke-dasharray:none;stroke-opacity:1" />
      <path
         inkscape:connector-curvature="0"
         id="path5694"
         d="m 574.88924,682.80408 c 3.62867,-0.34515 2.46521,-0.009 4.07045,-0.61946 0.27137,-0.10325 0.60123,-0.18825 0.8141,-0.30973 0.33659,-0.19209 0.38504,-0.45622 0.8141,-0.61945 0.0262,-0.01 2.24483,0 2.44226,0 0.54273,0 1.17661,-0.11454 1.6282,0 0.50486,0.12805 0.4775,0.42736 0.81408,0.61945 0.21288,0.12148 0.64246,0.17913 0.8141,0.30973 0.56147,0.42722 -0.98591,0.27703 0.81408,0.61946 0.24272,0.0462 0.54273,0 0.81411,0 0.27134,0 0.54272,0 0.81407,0 0.81411,0 1.6282,0 2.44228,0 0.56215,0 3.00887,0.0471 3.25637,0 0.34325,-0.0653 0.47084,-0.24444 0.81409,-0.30974 0.21407,-0.0407 2.83067,0 3.25637,0 0.27137,0 0.58831,-0.0572 0.8141,0 0.60209,0.15271 2.58667,1.11152 3.25636,1.23892 0.24272,0.0462 0.54273,0 0.8141,0 2.07443,0 1.08506,-0.36128 2.44228,-0.61946 0.24271,-0.0462 0.54274,0 0.81409,0 3.79908,0 7.59819,0 11.39729,0 0.32712,0 4.76058,0.0314 4.88455,0 1.1064,-0.28063 4.26744,-1.46373 4.88454,-2.1681 0.0858,-0.0979 -0.12135,-0.21738 0,-0.30972 1.00598,-0.76546 0.8141,0.1069 0.8141,-0.61946"
         style="fill:none;fill-rule:evenodd;stroke:#000000;stroke-width:1.06020403;stroke-linecap:butt;stroke-linejoin:miter;stroke-miterlimit:4;stroke-dasharray:none;stroke-opacity:1" />
      <path
         style="fill:none;fill-rule:evenodd;stroke:#000000;stroke-width:1;stroke-linecap:butt;stroke-linejoin:miter;stroke-miterlimit:4;stroke-dasharray:none;stroke-opacity:1"
         d="m 628.71413,694.7699 c -1.19696,-0.12026 -2.36789,-0.2584 -3.5909,-0.36078 -0.2271,-0.0195 -0.47878,0 -0.71818,0 -0.47879,0 -0.95757,0 -1.43636,0 -1.19696,0 -2.39394,0 -3.5909,0 -0.19108,0 -2.09524,0.0292 -2.15453,0 -0.21413,-0.10758 0.1514,-0.24669 0,-0.36078 -0.10706,-0.0806 -0.4788,-0.12025 -0.71819,-0.18038 -0.23939,-0.0601 -0.41537,-0.14236 -0.71818,-0.18039 -0.21411,-0.026 -0.47879,0 -0.71818,0 -0.47879,0 -0.95758,0 -1.43636,0 -0.23939,0 -0.47879,0 -0.71818,0 -0.23939,0 -0.50406,-0.026 -0.71818,0 -0.60563,0.0761 -0.83075,0.28472 -1.43635,0.36077 -0.4404,0.0553 -3.26534,-0.0546 -3.59091,0 -0.4454,0.0744 -0.54891,0.23337 -0.71818,0.36078 -0.31213,0.23532 -0.44702,0.48315 -0.71818,0.72156 -0.20798,0.18298 -0.56972,0.35469 -0.71819,0.54116 -0.0939,0.11798 0.11612,0.24409 0,0.36078 -0.867,0.87106 -0.34128,-0.01 -1.43635,0.54116 -0.49532,0.24865 0.86976,0.16121 -0.71819,0.36075 -0.21412,0.026 -0.64247,0.0569 -0.71817,0 -0.29925,-0.22557 0.19949,-0.65138 0,-0.90191 -0.14847,-0.18657 -0.53458,-0.35672 -0.71819,-0.54117 -0.30965,-0.31105 0.55711,-0.40124 -0.71817,-0.72155 -0.16928,-0.0426 -0.4788,0 -0.71818,0 -0.2394,0 -0.4788,0 -0.71819,0 -0.3249,0 -4.11768,0.0227 -4.30908,0 -0.66005,-0.0829 -2.32777,-0.67592 -2.87272,-0.72156 -0.36998,-0.0325 -4.26756,0 -5.02725,0 -3.59091,0 -7.18181,0 -10.77271,0"
         id="path5696"
         inkscape:connector-curvature="0" />
      <g
         id="g5698"
         transform="matrix(0.18008431,0,0,0.18008431,644.89593,613.74106)">
        <path
           sodipodi:nodetypes="sssccss"
           inkscape:connector-curvature="0"
           id="path5700"
           d="m 91.581115,386.82594 32.552055,0 c 23.72874,0 42.83167,15.85073 42.83167,35.53976 l 0,36.96134 -118.215386,0 0,-36.96134 c 0,-19.68903 19.102921,-35.53976 42.831661,-35.53976 z"
           style="color:#000000;clip-rule:nonzero;display:inline;overflow:visible;visibility:visible;opacity:1;isolation:auto;mix-blend-mode:normal;color-interpolation:sRGB;color-interpolation-filters:linearRGB;solid-color:#000000;solid-opacity:1;fill:#000000;fill-opacity:1;fill-rule:nonzero;stroke:none;stroke-width:4.2076993;stroke-linecap:butt;stroke-linejoin:miter;stroke-miterlimit:4;stroke-dasharray:none;stroke-dashoffset:0;stroke-opacity:1;color-rendering:auto;image-rendering:auto;shape-rendering:auto;text-rendering:auto;enable-background:accumulate" />
        <circle
           r="40"
           cy="332.93362"
           cx="107.14286"
           id="circle5702"
           style="color:#000000;clip-rule:nonzero;display:inline;overflow:visible;visibility:visible;opacity:1;isolation:auto;mix-blend-mode:normal;color-interpolation:sRGB;color-interpolation-filters:linearRGB;solid-color:#000000;solid-opacity:1;fill:#000000;fill-opacity:1;fill-rule:nonzero;stroke:none;stroke-width:3.85165191;stroke-linecap:butt;stroke-linejoin:miter;stroke-miterlimit:4;stroke-dasharray:none;stroke-dashoffset:0;stroke-opacity:1;color-rendering:auto;image-rendering:auto;shape-rendering:auto;text-rendering:auto;enable-background:accumulate" />
      </g>
    </g>
  </g>
</svg>
